<svg width="104" height="28" viewBox="0 0 104 28" fill="none" xmlns="http://www.w3.org/2000/svg">
<g clip-path="url(#clip0_3563_2056)">
<mask id="mask0_3563_2056" style="mask-type:luminance" maskUnits="userSpaceOnUse" x="0" y="1" width="28" height="25">
<path d="M18.0558 23.7925L13.7089 2.89845C11.8584 8.37245 5.99219 8.06445 0.914062 4.76445L9.48594 14.2785L18.0558 23.7925ZM19.6056 25.9445L15.2588 5.05245C19.1466 9.36845 24.4177 6.81645 27.7692 1.81445L23.6864 13.8805L19.6056 25.9445Z" fill="white"/>
</mask>
<g mask="url(#mask0_3563_2056)">
<path d="M5.89469 28.7102L32.2583 23.3922L27.2777 -0.551758L0.914062 4.76424L5.89469 28.7102Z" fill="url(#paint0_linear_3563_2056)"/>
</g>
<path d="M36.3272 25.9724H31.9681L31.2044 23.2544H25.7565L24.9034 25.9724H20.8003L25.4681 12.0244H31.7873L36.3272 25.9724ZM30.2619 20.2144L28.5739 15.0644H28.4642L26.7397 20.2144H30.2619Z" fill="white"/>
<path d="M40.7756 15.2441V17.2281C41.0843 15.8521 42.0654 15.2441 43.8813 15.2441H45.1346V18.2841L42.6829 18.2481C41.3382 18.2301 40.7756 18.7481 40.7756 19.9461V25.9721H37.3245V15.2441H40.7756Z" fill="white"/>
<path d="M53.6701 25.9721H51.4905C48.0029 25.9721 47.1315 25.2561 47.1315 22.3601V18.1041H46.0427V15.2441H47.3143V12.9541H50.5826V15.2421H53.4893V18.1041H50.5826V21.4841C50.5826 22.7901 50.7105 22.9321 51.8359 22.9321H53.6701V25.9721Z" fill="white"/>
<path d="M55.3052 11.666H58.9371V14.17H55.3052V11.666ZM58.8456 15.244V25.972H55.3946V15.244H58.8456Z" fill="white"/>
<path d="M60.389 15.244H61.4777C61.4777 12.382 62.3674 11.668 65.8368 11.668H72.1926V14.172H65.9993C65.0365 14.172 64.9268 14.262 64.9268 15.138V15.246H67.2871V18.108H64.9268V25.976H61.4757V18.104H60.387V15.244H60.389ZM72.1032 15.244V25.972H68.6521V15.244H72.1032Z" fill="white"/>
<path d="M79.1496 23.6843C80.9107 23.6843 81.1118 23.5943 81.1118 22.8623C81.1118 22.3263 80.604 22.0943 78.5321 21.7183C74.8271 21.0023 73.9009 20.3243 73.9009 18.2663C73.9009 15.6743 74.9713 15.0303 79.241 15.0303C83.4173 15.0303 84.4715 15.7643 84.4715 18.6603V18.9823H81.0204V18.6603C81.0204 17.6403 80.8396 17.5343 79.241 17.5343C77.6973 17.5343 77.5348 17.6243 77.5348 18.3743C77.5348 18.8743 77.8435 19.0363 79.042 19.2143C83.6001 19.9483 84.7437 20.7343 84.7437 23.1123C84.7437 25.5803 83.6367 26.1883 79.241 26.1883C74.7743 26.1883 73.647 25.4723 73.647 22.6123V22.3803H77.0981V22.6123C77.0981 23.5763 77.2971 23.6843 79.1496 23.6843Z" fill="white"/>
<path d="M89.6475 15.2443V16.4783C90.0111 15.4763 90.8459 15.0303 92.2089 15.0303C94.6972 15.0303 95.6782 15.5123 95.9687 17.2303C96.2957 15.7103 97.222 15.0303 98.9282 15.0303C102.251 15.0303 103.086 15.9783 103.086 19.7503V25.9723H99.6351V20.1963C99.6351 18.1223 99.4726 17.8903 98.0365 17.8903C96.8381 17.8903 96.3303 18.5523 96.3486 20.0723V25.9723H92.934V20.1963C92.934 18.1223 92.7715 17.8903 91.3171 17.8903C90.1553 17.8903 89.6454 18.5523 89.6454 20.0723V25.9723H86.1943V15.2443H89.6475Z" fill="white"/>
</g>
<defs>
<linearGradient id="paint0_linear_3563_2056" x1="21.2932" y1="25.1086" x2="11.6062" y2="1.69292" gradientUnits="userSpaceOnUse">
<stop stop-color="#E60C84"/>
<stop offset="1" stop-color="#FFCF4B"/>
</linearGradient>
<clipPath id="clip0_3563_2056">
<rect width="104" height="28" fill="white"/>
</clipPath>
</defs>
</svg>
